<svg xmlns="http://www.w3.org/2000/svg" width="150.856" height="159.575" viewBox="0 0 150.856 159.575">
  <g id="Grupo_1" data-name="Grupo 1" transform="translate(-843 -8)">
    <g id="noun_Tornado_2572976" transform="translate(878.146 51.865)">
      <g id="Layer_2" data-name="Layer 2" transform="translate(0 0)">
        <path id="Trazado_1" data-name="Trazado 1" d="M101.18,2A16.53,16.53,0,0,0,84.65,18.53a4.133,4.133,0,0,0,8.265,0A8.265,8.265,0,1,1,101.18,26.8H6.133a4.133,4.133,0,1,0,0,8.265H101.18a16.53,16.53,0,1,0,0-33.06Z" transform="translate(-2 -2)" fill="#fff"/>
        <path id="Trazado_2" data-name="Trazado 2" d="M88.65,16.133A4.133,4.133,0,0,0,84.518,12H10.133a4.133,4.133,0,1,0,0,8.265H84.518A4.133,4.133,0,0,0,88.65,16.133Z" transform="translate(10.53 29.325)" fill="#fff"/>
        <path id="Trazado_3" data-name="Trazado 3" d="M67.855,20.133A4.133,4.133,0,0,0,63.723,16H14.133a4.133,4.133,0,0,0,0,8.265h49.59A4.133,4.133,0,0,0,67.855,20.133Z" transform="translate(23.06 41.855)" fill="#fff"/>
        <path id="Trazado_4" data-name="Trazado 4" d="M53.458,20H12.133a4.133,4.133,0,1,0,0,8.265H53.458a4.133,4.133,0,0,0,0-8.265Z" transform="translate(16.795 54.385)" fill="#fff"/>
        <path id="Trazado_5" data-name="Trazado 5" d="M45.06,28.133A4.133,4.133,0,0,0,40.928,24h-24.8a4.133,4.133,0,1,0,0,8.265h24.8A4.133,4.133,0,0,0,45.06,28.133Z" transform="translate(29.325 66.915)" fill="#fff"/>
        <path id="Trazado_6" data-name="Trazado 6" d="M18.133,28a4.133,4.133,0,1,0,0,8.265H26.4A4.133,4.133,0,1,0,26.4,28Z" transform="translate(35.59 79.445)" fill="#fff"/>
      </g>
    </g>
    <text id="safe" transform="translate(843 60)" fill="#fff" font-size="53" font-family="Lato-Black, Lato Black" font-weight="800"><tspan x="0" y="0">safe</tspan></text>
  </g>
</svg>
